<mxfile host="65bd71144e">
    <diagram id="DMqmeZ3RHjKyLr8Z_s1l" name="第 1 页">
        <mxGraphModel dx="640" dy="317" grid="1" gridSize="10" guides="1" tooltips="1" connect="1" arrows="1" fold="1" page="1" pageScale="1" pageWidth="1169" pageHeight="827" math="0" shadow="0">
            <root>
                <mxCell id="0"/>
                <mxCell id="1" parent="0"/>
                <mxCell id="11" value="" style="group" vertex="1" connectable="0" parent="1">
                    <mxGeometry x="40" y="40" width="200" height="120" as="geometry"/>
                </mxCell>
                <mxCell id="2" value="鸟类" style="whiteSpace=wrap;html=1;" vertex="1" parent="11">
                    <mxGeometry y="40" width="80" height="40" as="geometry"/>
                </mxCell>
                <mxCell id="3" value="麻雀" style="whiteSpace=wrap;html=1;" vertex="1" parent="11">
                    <mxGeometry x="120" width="80" height="40" as="geometry"/>
                </mxCell>
                <mxCell id="4" value="啄木鸟" style="whiteSpace=wrap;html=1;" vertex="1" parent="11">
                    <mxGeometry x="120" y="80" width="80" height="40" as="geometry"/>
                </mxCell>
                <mxCell id="5" value="喜鹊" style="whiteSpace=wrap;html=1;" vertex="1" parent="11">
                    <mxGeometry x="120" y="40" width="80" height="40" as="geometry"/>
                </mxCell>
                <mxCell id="8" value="" style="group;rotation=-180;" vertex="1" connectable="0" parent="11">
                    <mxGeometry x="80" y="50" width="40" height="20" as="geometry"/>
                </mxCell>
                <mxCell id="7" style="edgeStyle=none;html=1;exitX=0;exitY=0.5;exitDx=0;exitDy=0;rounded=0;strokeColor=default;endArrow=none;endFill=0;" edge="1" parent="8" source="6">
                    <mxGeometry relative="1" as="geometry">
                        <mxPoint x="40" y="10" as="targetPoint"/>
                    </mxGeometry>
                </mxCell>
                <mxCell id="6" value="" style="triangle;whiteSpace=wrap;html=1;rotation=-180;" vertex="1" parent="8">
                    <mxGeometry width="10" height="20" as="geometry"/>
                </mxCell>
                <mxCell id="10" value="继承关系" style="text;html=1;align=center;verticalAlign=middle;resizable=0;points=[];autosize=1;strokeColor=none;fillColor=none;" vertex="1" parent="11">
                    <mxGeometry x="10" y="85" width="70" height="30" as="geometry"/>
                </mxCell>
                <mxCell id="12" value="" style="group" vertex="1" connectable="0" parent="1">
                    <mxGeometry x="280" y="40" width="200" height="120" as="geometry"/>
                </mxCell>
                <mxCell id="13" value="飞行类&lt;br&gt;&lt;font style=&quot;font-size: 10px;&quot;&gt;《&lt;span style=&quot;color: rgba(0, 0, 0, 0.75); font-family: -apple-system, &amp;quot;SF UI Text&amp;quot;, Arial, &amp;quot;PingFang SC&amp;quot;, &amp;quot;Hiragino Sans GB&amp;quot;, &amp;quot;Microsoft YaHei&amp;quot;, &amp;quot;WenQuanYi Micro Hei&amp;quot;, sans-serif; font-variant-ligatures: no-common-ligatures; text-align: left; background-color: rgb(255, 255, 255);&quot;&gt;interface&lt;/span&gt;》&lt;/font&gt;" style="whiteSpace=wrap;html=1;" vertex="1" parent="12">
                    <mxGeometry y="40" width="80" height="40" as="geometry"/>
                </mxCell>
                <mxCell id="14" value="鸟类" style="whiteSpace=wrap;html=1;" vertex="1" parent="12">
                    <mxGeometry x="120" width="80" height="40" as="geometry"/>
                </mxCell>
                <mxCell id="15" value="导弹" style="whiteSpace=wrap;html=1;" vertex="1" parent="12">
                    <mxGeometry x="120" y="80" width="80" height="40" as="geometry"/>
                </mxCell>
                <mxCell id="16" value="飞机" style="whiteSpace=wrap;html=1;" vertex="1" parent="12">
                    <mxGeometry x="120" y="40" width="80" height="40" as="geometry"/>
                </mxCell>
                <mxCell id="17" value="" style="group;rotation=-180;" vertex="1" connectable="0" parent="12">
                    <mxGeometry x="80" y="50" width="40" height="20" as="geometry"/>
                </mxCell>
                <mxCell id="18" style="edgeStyle=none;html=1;exitX=0;exitY=0.5;exitDx=0;exitDy=0;rounded=0;strokeColor=default;endArrow=none;endFill=0;dashed=1;" edge="1" parent="17" source="19">
                    <mxGeometry relative="1" as="geometry">
                        <mxPoint x="40" y="10" as="targetPoint"/>
                    </mxGeometry>
                </mxCell>
                <mxCell id="19" value="" style="triangle;whiteSpace=wrap;html=1;rotation=-180;" vertex="1" parent="17">
                    <mxGeometry width="10" height="20" as="geometry"/>
                </mxCell>
                <mxCell id="20" value="实现关系" style="text;html=1;align=center;verticalAlign=middle;resizable=0;points=[];autosize=1;strokeColor=none;fillColor=none;" vertex="1" parent="12">
                    <mxGeometry x="10" y="85" width="70" height="30" as="geometry"/>
                </mxCell>
                <mxCell id="29" value="" style="group" vertex="1" connectable="0" parent="1">
                    <mxGeometry x="40" y="200" width="200" height="150" as="geometry"/>
                </mxCell>
                <mxCell id="21" value="水果工厂" style="whiteSpace=wrap;html=1;" vertex="1" parent="29">
                    <mxGeometry y="40" width="80" height="40" as="geometry"/>
                </mxCell>
                <mxCell id="22" value="苹果" style="whiteSpace=wrap;html=1;" vertex="1" parent="29">
                    <mxGeometry x="120" width="80" height="40" as="geometry"/>
                </mxCell>
                <mxCell id="23" value="香蕉" style="whiteSpace=wrap;html=1;" vertex="1" parent="29">
                    <mxGeometry x="120" y="40" width="80" height="40" as="geometry"/>
                </mxCell>
                <mxCell id="25" style="edgeStyle=none;rounded=0;html=1;exitX=1;exitY=0.5;exitDx=0;exitDy=0;entryX=0;entryY=0.5;entryDx=0;entryDy=0;dashed=1;strokeColor=default;fontSize=10;endArrow=classic;endFill=1;" edge="1" parent="29" source="21" target="23">
                    <mxGeometry relative="1" as="geometry"/>
                </mxCell>
                <mxCell id="24" value="桃子" style="whiteSpace=wrap;html=1;" vertex="1" parent="29">
                    <mxGeometry x="120" y="80" width="80" height="40" as="geometry"/>
                </mxCell>
                <mxCell id="26" value="依赖关系" style="text;html=1;align=center;verticalAlign=middle;resizable=0;points=[];autosize=1;strokeColor=none;fillColor=none;" vertex="1" parent="29">
                    <mxGeometry x="10" y="85" width="70" height="30" as="geometry"/>
                </mxCell>
                <mxCell id="28" value="不使用水果的属性和方法,只是创建对象" style="text;html=1;align=center;verticalAlign=middle;resizable=0;points=[];autosize=1;strokeColor=none;fillColor=none;fontSize=10;" vertex="1" parent="29">
                    <mxGeometry y="120" width="200" height="30" as="geometry"/>
                </mxCell>
                <mxCell id="30" value="" style="group" vertex="1" connectable="0" parent="1">
                    <mxGeometry x="280" y="200" width="215" height="155" as="geometry"/>
                </mxCell>
                <mxCell id="31" value="综合成绩" style="whiteSpace=wrap;html=1;" vertex="1" parent="30">
                    <mxGeometry y="40" width="80" height="40" as="geometry"/>
                </mxCell>
                <mxCell id="32" value="考勤" style="whiteSpace=wrap;html=1;" vertex="1" parent="30">
                    <mxGeometry x="120" width="80" height="40" as="geometry"/>
                </mxCell>
                <mxCell id="33" value="作业" style="whiteSpace=wrap;html=1;" vertex="1" parent="30">
                    <mxGeometry x="120" y="40" width="80" height="40" as="geometry"/>
                </mxCell>
                <mxCell id="34" style="edgeStyle=none;rounded=0;html=1;exitX=1;exitY=0.5;exitDx=0;exitDy=0;entryX=0;entryY=0.5;entryDx=0;entryDy=0;dashed=1;strokeColor=default;fontSize=10;endArrow=classic;endFill=1;" edge="1" parent="30" source="31" target="33">
                    <mxGeometry relative="1" as="geometry"/>
                </mxCell>
                <mxCell id="35" value="考试" style="whiteSpace=wrap;html=1;" vertex="1" parent="30">
                    <mxGeometry x="120" y="80" width="80" height="40" as="geometry"/>
                </mxCell>
                <mxCell id="36" value="关联关系" style="text;html=1;align=center;verticalAlign=middle;resizable=0;points=[];autosize=1;strokeColor=none;fillColor=none;" vertex="1" parent="30">
                    <mxGeometry x="10" y="85" width="70" height="30" as="geometry"/>
                </mxCell>
                <mxCell id="37" value="综合成绩需要3个方面的加权值,使用它们的属性&lt;br&gt;如考勤率,作业分数,考试排名等" style="text;html=1;align=center;verticalAlign=middle;resizable=0;points=[];autosize=1;strokeColor=none;fillColor=none;fontSize=10;" vertex="1" parent="30">
                    <mxGeometry x="-15" y="115" width="230" height="40" as="geometry"/>
                </mxCell>
                <mxCell id="52" value="" style="group" vertex="1" connectable="0" parent="1">
                    <mxGeometry x="40" y="360" width="200" height="150" as="geometry"/>
                </mxCell>
                <mxCell id="39" value="汽车" style="whiteSpace=wrap;html=1;" vertex="1" parent="52">
                    <mxGeometry y="40" width="80" height="40" as="geometry"/>
                </mxCell>
                <mxCell id="40" value="轮子" style="whiteSpace=wrap;html=1;" vertex="1" parent="52">
                    <mxGeometry x="120" width="80" height="40" as="geometry"/>
                </mxCell>
                <mxCell id="41" value="大灯" style="whiteSpace=wrap;html=1;" vertex="1" parent="52">
                    <mxGeometry x="120" y="40" width="80" height="40" as="geometry"/>
                </mxCell>
                <mxCell id="43" value="窗户" style="whiteSpace=wrap;html=1;" vertex="1" parent="52">
                    <mxGeometry x="120" y="80" width="80" height="40" as="geometry"/>
                </mxCell>
                <mxCell id="44" value="聚合关系" style="text;html=1;align=center;verticalAlign=middle;resizable=0;points=[];autosize=1;strokeColor=none;fillColor=none;" vertex="1" parent="52">
                    <mxGeometry x="10" y="85" width="70" height="30" as="geometry"/>
                </mxCell>
                <mxCell id="45" value="轮子可以和汽车的生命周期不同" style="text;html=1;align=center;verticalAlign=middle;resizable=0;points=[];autosize=1;strokeColor=none;fillColor=none;fontSize=10;" vertex="1" parent="52">
                    <mxGeometry x="20" y="120" width="160" height="30" as="geometry"/>
                </mxCell>
                <mxCell id="50" value="" style="group;rotation=-180;" vertex="1" connectable="0" parent="52">
                    <mxGeometry x="80" y="50" width="40" height="20" as="geometry"/>
                </mxCell>
                <mxCell id="49" style="edgeStyle=none;rounded=0;html=1;exitX=0;exitY=0.5;exitDx=0;exitDy=0;strokeColor=default;fontSize=10;endArrow=none;endFill=0;" edge="1" parent="50" source="47">
                    <mxGeometry relative="1" as="geometry">
                        <mxPoint x="40" y="10" as="targetPoint"/>
                    </mxGeometry>
                </mxCell>
                <mxCell id="47" value="" style="rhombus;whiteSpace=wrap;html=1;fontSize=10;rotation=-180;" vertex="1" parent="50">
                    <mxGeometry width="20" height="20" as="geometry"/>
                </mxCell>
                <mxCell id="53" value="" style="group" vertex="1" connectable="0" parent="1">
                    <mxGeometry x="280" y="360" width="200" height="150" as="geometry"/>
                </mxCell>
                <mxCell id="54" value="人" style="whiteSpace=wrap;html=1;" vertex="1" parent="53">
                    <mxGeometry y="40" width="80" height="40" as="geometry"/>
                </mxCell>
                <mxCell id="55" value="手" style="whiteSpace=wrap;html=1;" vertex="1" parent="53">
                    <mxGeometry x="120" width="80" height="40" as="geometry"/>
                </mxCell>
                <mxCell id="56" value="脚" style="whiteSpace=wrap;html=1;" vertex="1" parent="53">
                    <mxGeometry x="120" y="40" width="80" height="40" as="geometry"/>
                </mxCell>
                <mxCell id="57" value="头" style="whiteSpace=wrap;html=1;" vertex="1" parent="53">
                    <mxGeometry x="120" y="80" width="80" height="40" as="geometry"/>
                </mxCell>
                <mxCell id="58" value="组合关系" style="text;html=1;align=center;verticalAlign=middle;resizable=0;points=[];autosize=1;strokeColor=none;fillColor=none;" vertex="1" parent="53">
                    <mxGeometry x="10" y="85" width="70" height="30" as="geometry"/>
                </mxCell>
                <mxCell id="59" value="生命周期不同一致" style="text;html=1;align=center;verticalAlign=middle;resizable=0;points=[];autosize=1;strokeColor=none;fillColor=none;fontSize=10;" vertex="1" parent="53">
                    <mxGeometry x="50" y="120" width="100" height="30" as="geometry"/>
                </mxCell>
                <mxCell id="60" value="" style="group;rotation=-180;" vertex="1" connectable="0" parent="53">
                    <mxGeometry x="80" y="50" width="40" height="20" as="geometry"/>
                </mxCell>
                <mxCell id="61" style="edgeStyle=none;rounded=0;html=1;exitX=0;exitY=0.5;exitDx=0;exitDy=0;strokeColor=default;fontSize=10;endArrow=none;endFill=0;" edge="1" parent="60" source="62">
                    <mxGeometry relative="1" as="geometry">
                        <mxPoint x="40" y="10" as="targetPoint"/>
                    </mxGeometry>
                </mxCell>
                <mxCell id="62" value="" style="rhombus;whiteSpace=wrap;html=1;fontSize=10;rotation=-180;" vertex="1" parent="60">
                    <mxGeometry width="20" height="20" as="geometry"/>
                </mxCell>
            </root>
        </mxGraphModel>
    </diagram>
</mxfile>